<mxfile host="drawio-plugin" modified="2022-10-06T12:41:33.878Z" agent="5.0 (Macintosh; Intel Mac OS X 10_15_7) AppleWebKit/537.36 (KHTML, like Gecko) Chrome/98.0.4758.102 Safari/537.36" etag="bRGbwTyRPkKXxWymEAhB" version="15.5.4" type="embed"><diagram id="qxNSoSG71GYbSTTbPRva" name="Page-1"><mxGraphModel dx="507" dy="472" grid="1" gridSize="10" guides="1" tooltips="1" connect="1" arrows="1" fold="1" page="1" pageScale="1" pageWidth="827" pageHeight="1169" math="0" shadow="0"><root><mxCell id="0"/><mxCell id="1" parent="0"/><mxCell id="Ek9n73prsNn7vPPhgxyE-56" style="edgeStyle=orthogonalEdgeStyle;rounded=0;orthogonalLoop=1;jettySize=auto;html=1;entryX=0.5;entryY=0;entryDx=0;entryDy=0;fontSize=14;endArrow=none;endFill=0;" parent="1" source="Ek9n73prsNn7vPPhgxyE-5" target="Ek9n73prsNn7vPPhgxyE-35" edge="1"><mxGeometry relative="1" as="geometry"/></mxCell><mxCell id="Ek9n73prsNn7vPPhgxyE-57" value="*" style="edgeLabel;html=1;align=center;verticalAlign=middle;resizable=0;points=[];fontSize=14;" parent="Ek9n73prsNn7vPPhgxyE-56" vertex="1" connectable="0"><mxGeometry x="0.6857" relative="1" as="geometry"><mxPoint as="offset"/></mxGeometry></mxCell><mxCell id="Ek9n73prsNn7vPPhgxyE-58" value="1" style="edgeLabel;html=1;align=center;verticalAlign=middle;resizable=0;points=[];fontSize=14;" parent="Ek9n73prsNn7vPPhgxyE-56" vertex="1" connectable="0"><mxGeometry x="-0.7143" y="-1" relative="1" as="geometry"><mxPoint as="offset"/></mxGeometry></mxCell><mxCell id="Ek9n73prsNn7vPPhgxyE-5" value="User" style="swimlane;fontStyle=0;childLayout=stackLayout;horizontal=1;startSize=26;fillColor=none;horizontalStack=0;resizeParent=1;resizeParentMax=0;resizeLast=0;collapsible=1;marginBottom=0;" parent="1" vertex="1"><mxGeometry x="330" y="40" width="140" height="130" as="geometry"/></mxCell><mxCell id="Ek9n73prsNn7vPPhgxyE-11" value="- name: string" style="text;strokeColor=none;fillColor=none;align=left;verticalAlign=top;spacingLeft=4;spacingRight=4;overflow=hidden;rotatable=0;points=[[0,0.5],[1,0.5]];portConstraint=eastwest;" parent="Ek9n73prsNn7vPPhgxyE-5" vertex="1"><mxGeometry y="26" width="140" height="26" as="geometry"/></mxCell><mxCell id="Ek9n73prsNn7vPPhgxyE-6" value="- username: string" style="text;strokeColor=none;fillColor=none;align=left;verticalAlign=top;spacingLeft=4;spacingRight=4;overflow=hidden;rotatable=0;points=[[0,0.5],[1,0.5]];portConstraint=eastwest;" parent="Ek9n73prsNn7vPPhgxyE-5" vertex="1"><mxGeometry y="52" width="140" height="26" as="geometry"/></mxCell><mxCell id="Ek9n73prsNn7vPPhgxyE-7" value="- password: string" style="text;strokeColor=none;fillColor=none;align=left;verticalAlign=top;spacingLeft=4;spacingRight=4;overflow=hidden;rotatable=0;points=[[0,0.5],[1,0.5]];portConstraint=eastwest;" parent="Ek9n73prsNn7vPPhgxyE-5" vertex="1"><mxGeometry y="78" width="140" height="26" as="geometry"/></mxCell><mxCell id="Ek9n73prsNn7vPPhgxyE-8" value="- email: string" style="text;strokeColor=none;fillColor=none;align=left;verticalAlign=top;spacingLeft=4;spacingRight=4;overflow=hidden;rotatable=0;points=[[0,0.5],[1,0.5]];portConstraint=eastwest;" parent="Ek9n73prsNn7vPPhgxyE-5" vertex="1"><mxGeometry y="104" width="140" height="26" as="geometry"/></mxCell><mxCell id="4" style="edgeStyle=orthogonalEdgeStyle;rounded=0;orthogonalLoop=1;jettySize=auto;html=1;endArrow=none;endFill=0;" parent="1" source="Ek9n73prsNn7vPPhgxyE-12" target="Ek9n73prsNn7vPPhgxyE-17" edge="1"><mxGeometry relative="1" as="geometry"/></mxCell><mxCell id="5" value="&lt;font style=&quot;font-size: 14px&quot;&gt;*&lt;/font&gt;" style="edgeLabel;html=1;align=center;verticalAlign=middle;resizable=0;points=[];" parent="4" vertex="1" connectable="0"><mxGeometry x="-0.7742" relative="1" as="geometry"><mxPoint as="offset"/></mxGeometry></mxCell><mxCell id="6" value="*" style="edgeLabel;html=1;align=center;verticalAlign=middle;resizable=0;points=[];fontSize=14;" parent="4" vertex="1" connectable="0"><mxGeometry x="0.4839" y="-1" relative="1" as="geometry"><mxPoint as="offset"/></mxGeometry></mxCell><mxCell id="Ek9n73prsNn7vPPhgxyE-12" value="Role" style="swimlane;fontStyle=0;childLayout=stackLayout;horizontal=1;startSize=26;fillColor=none;horizontalStack=0;resizeParent=1;resizeParentMax=0;resizeLast=0;collapsible=1;marginBottom=0;" parent="1" vertex="1"><mxGeometry x="60" y="10" width="140" height="78" as="geometry"/></mxCell><mxCell id="Ek9n73prsNn7vPPhgxyE-13" value="- name: string" style="text;strokeColor=none;fillColor=none;align=left;verticalAlign=top;spacingLeft=4;spacingRight=4;overflow=hidden;rotatable=0;points=[[0,0.5],[1,0.5]];portConstraint=eastwest;" parent="Ek9n73prsNn7vPPhgxyE-12" vertex="1"><mxGeometry y="26" width="140" height="26" as="geometry"/></mxCell><mxCell id="Ek9n73prsNn7vPPhgxyE-14" value="- description: string" style="text;strokeColor=none;fillColor=none;align=left;verticalAlign=top;spacingLeft=4;spacingRight=4;overflow=hidden;rotatable=0;points=[[0,0.5],[1,0.5]];portConstraint=eastwest;" parent="Ek9n73prsNn7vPPhgxyE-12" vertex="1"><mxGeometry y="52" width="140" height="26" as="geometry"/></mxCell><mxCell id="Ek9n73prsNn7vPPhgxyE-17" value="Permission" style="swimlane;fontStyle=0;childLayout=stackLayout;horizontal=1;startSize=26;fillColor=none;horizontalStack=0;resizeParent=1;resizeParentMax=0;resizeLast=0;collapsible=1;marginBottom=0;" parent="1" vertex="1"><mxGeometry x="60" y="150" width="140" height="78" as="geometry"/></mxCell><mxCell id="Ek9n73prsNn7vPPhgxyE-18" value="- name: string" style="text;strokeColor=none;fillColor=none;align=left;verticalAlign=top;spacingLeft=4;spacingRight=4;overflow=hidden;rotatable=0;points=[[0,0.5],[1,0.5]];portConstraint=eastwest;" parent="Ek9n73prsNn7vPPhgxyE-17" vertex="1"><mxGeometry y="26" width="140" height="26" as="geometry"/></mxCell><mxCell id="Ek9n73prsNn7vPPhgxyE-19" value="- description: string" style="text;strokeColor=none;fillColor=none;align=left;verticalAlign=top;spacingLeft=4;spacingRight=4;overflow=hidden;rotatable=0;points=[[0,0.5],[1,0.5]];portConstraint=eastwest;" parent="Ek9n73prsNn7vPPhgxyE-17" vertex="1"><mxGeometry y="52" width="140" height="26" as="geometry"/></mxCell><mxCell id="Ek9n73prsNn7vPPhgxyE-65" style="edgeStyle=orthogonalEdgeStyle;rounded=0;orthogonalLoop=1;jettySize=auto;html=1;fontSize=14;endArrow=none;endFill=0;" parent="1" source="Ek9n73prsNn7vPPhgxyE-20" target="Ek9n73prsNn7vPPhgxyE-30" edge="1"><mxGeometry relative="1" as="geometry"/></mxCell><mxCell id="Ek9n73prsNn7vPPhgxyE-66" value="*" style="edgeLabel;html=1;align=center;verticalAlign=middle;resizable=0;points=[];fontSize=14;" parent="Ek9n73prsNn7vPPhgxyE-65" vertex="1" connectable="0"><mxGeometry x="0.6" relative="1" as="geometry"><mxPoint as="offset"/></mxGeometry></mxCell><mxCell id="Ek9n73prsNn7vPPhgxyE-67" value="1" style="edgeLabel;html=1;align=center;verticalAlign=middle;resizable=0;points=[];fontSize=14;" parent="Ek9n73prsNn7vPPhgxyE-65" vertex="1" connectable="0"><mxGeometry x="-0.6286" y="2" relative="1" as="geometry"><mxPoint as="offset"/></mxGeometry></mxCell><mxCell id="Ek9n73prsNn7vPPhgxyE-20" value="Product" style="swimlane;fontStyle=0;childLayout=stackLayout;horizontal=1;startSize=26;fillColor=none;horizontalStack=0;resizeParent=1;resizeParentMax=0;resizeLast=0;collapsible=1;marginBottom=0;" parent="1" vertex="1"><mxGeometry x="590" y="200" width="140" height="156" as="geometry"/></mxCell><mxCell id="2" value="- productId: string" style="text;strokeColor=none;fillColor=none;align=left;verticalAlign=top;spacingLeft=4;spacingRight=4;overflow=hidden;rotatable=0;points=[[0,0.5],[1,0.5]];portConstraint=eastwest;" parent="Ek9n73prsNn7vPPhgxyE-20" vertex="1"><mxGeometry y="26" width="140" height="26" as="geometry"/></mxCell><mxCell id="26" value="- productCode: string" style="text;strokeColor=none;fillColor=none;align=left;verticalAlign=top;spacingLeft=4;spacingRight=4;overflow=hidden;rotatable=0;points=[[0,0.5],[1,0.5]];portConstraint=eastwest;" vertex="1" parent="Ek9n73prsNn7vPPhgxyE-20"><mxGeometry y="52" width="140" height="26" as="geometry"/></mxCell><mxCell id="Ek9n73prsNn7vPPhgxyE-21" value="- name: string" style="text;strokeColor=none;fillColor=none;align=left;verticalAlign=top;spacingLeft=4;spacingRight=4;overflow=hidden;rotatable=0;points=[[0,0.5],[1,0.5]];portConstraint=eastwest;" parent="Ek9n73prsNn7vPPhgxyE-20" vertex="1"><mxGeometry y="78" width="140" height="26" as="geometry"/></mxCell><mxCell id="Ek9n73prsNn7vPPhgxyE-22" value="- description: string" style="text;strokeColor=none;fillColor=none;align=left;verticalAlign=top;spacingLeft=4;spacingRight=4;overflow=hidden;rotatable=0;points=[[0,0.5],[1,0.5]];portConstraint=eastwest;" parent="Ek9n73prsNn7vPPhgxyE-20" vertex="1"><mxGeometry y="104" width="140" height="26" as="geometry"/></mxCell><mxCell id="Ek9n73prsNn7vPPhgxyE-23" value="- price: double" style="text;strokeColor=none;fillColor=none;align=left;verticalAlign=top;spacingLeft=4;spacingRight=4;overflow=hidden;rotatable=0;points=[[0,0.5],[1,0.5]];portConstraint=eastwest;" parent="Ek9n73prsNn7vPPhgxyE-20" vertex="1"><mxGeometry y="130" width="140" height="26" as="geometry"/></mxCell><mxCell id="Ek9n73prsNn7vPPhgxyE-71" style="edgeStyle=orthogonalEdgeStyle;rounded=0;orthogonalLoop=1;jettySize=auto;html=1;entryX=0.5;entryY=0;entryDx=0;entryDy=0;fontSize=14;endArrow=none;endFill=0;" parent="1" source="Ek9n73prsNn7vPPhgxyE-25" target="Ek9n73prsNn7vPPhgxyE-20" edge="1"><mxGeometry relative="1" as="geometry"/></mxCell><mxCell id="Ek9n73prsNn7vPPhgxyE-72" value="1" style="edgeLabel;html=1;align=center;verticalAlign=middle;resizable=0;points=[];fontSize=14;" parent="Ek9n73prsNn7vPPhgxyE-71" vertex="1" connectable="0"><mxGeometry x="-0.8293" y="2" relative="1" as="geometry"><mxPoint as="offset"/></mxGeometry></mxCell><mxCell id="Ek9n73prsNn7vPPhgxyE-73" value="*" style="edgeLabel;html=1;align=center;verticalAlign=middle;resizable=0;points=[];fontSize=14;" parent="Ek9n73prsNn7vPPhgxyE-71" vertex="1" connectable="0"><mxGeometry x="0.7561" y="3" relative="1" as="geometry"><mxPoint x="-4" as="offset"/></mxGeometry></mxCell><mxCell id="Ek9n73prsNn7vPPhgxyE-25" value="ProductType" style="swimlane;fontStyle=0;childLayout=stackLayout;horizontal=1;startSize=26;fillColor=none;horizontalStack=0;resizeParent=1;resizeParentMax=0;resizeLast=0;collapsible=1;marginBottom=0;" parent="1" vertex="1"><mxGeometry x="590" y="40" width="140" height="78" as="geometry"/></mxCell><mxCell id="Ek9n73prsNn7vPPhgxyE-26" value="- name: string" style="text;strokeColor=none;fillColor=none;align=left;verticalAlign=top;spacingLeft=4;spacingRight=4;overflow=hidden;rotatable=0;points=[[0,0.5],[1,0.5]];portConstraint=eastwest;" parent="Ek9n73prsNn7vPPhgxyE-25" vertex="1"><mxGeometry y="26" width="140" height="26" as="geometry"/></mxCell><mxCell id="Ek9n73prsNn7vPPhgxyE-27" value="- description: string" style="text;strokeColor=none;fillColor=none;align=left;verticalAlign=top;spacingLeft=4;spacingRight=4;overflow=hidden;rotatable=0;points=[[0,0.5],[1,0.5]];portConstraint=eastwest;" parent="Ek9n73prsNn7vPPhgxyE-25" vertex="1"><mxGeometry y="52" width="140" height="26" as="geometry"/></mxCell><mxCell id="Ek9n73prsNn7vPPhgxyE-30" value="OrderItem" style="swimlane;fontStyle=0;childLayout=stackLayout;horizontal=1;startSize=26;fillColor=none;horizontalStack=0;resizeParent=1;resizeParentMax=0;resizeLast=0;collapsible=1;marginBottom=0;" parent="1" vertex="1"><mxGeometry x="590" y="420" width="140" height="78" as="geometry"/></mxCell><mxCell id="Ek9n73prsNn7vPPhgxyE-31" value="- quantity: int" style="text;strokeColor=none;fillColor=none;align=left;verticalAlign=top;spacingLeft=4;spacingRight=4;overflow=hidden;rotatable=0;points=[[0,0.5],[1,0.5]];portConstraint=eastwest;" parent="Ek9n73prsNn7vPPhgxyE-30" vertex="1"><mxGeometry y="26" width="140" height="26" as="geometry"/></mxCell><mxCell id="Ek9n73prsNn7vPPhgxyE-33" value="- price: double" style="text;strokeColor=none;fillColor=none;align=left;verticalAlign=top;spacingLeft=4;spacingRight=4;overflow=hidden;rotatable=0;points=[[0,0.5],[1,0.5]];portConstraint=eastwest;" parent="Ek9n73prsNn7vPPhgxyE-30" vertex="1"><mxGeometry y="52" width="140" height="26" as="geometry"/></mxCell><mxCell id="Ek9n73prsNn7vPPhgxyE-68" style="edgeStyle=orthogonalEdgeStyle;rounded=0;orthogonalLoop=1;jettySize=auto;html=1;entryX=0.55;entryY=0;entryDx=0;entryDy=0;entryPerimeter=0;fontSize=14;endArrow=none;endFill=0;" parent="1" source="Ek9n73prsNn7vPPhgxyE-35" target="Ek9n73prsNn7vPPhgxyE-38" edge="1"><mxGeometry relative="1" as="geometry"/></mxCell><mxCell id="Ek9n73prsNn7vPPhgxyE-69" value="1" style="edgeLabel;html=1;align=center;verticalAlign=middle;resizable=0;points=[];fontSize=14;" parent="Ek9n73prsNn7vPPhgxyE-68" vertex="1" connectable="0"><mxGeometry x="-0.7073" y="2" relative="1" as="geometry"><mxPoint as="offset"/></mxGeometry></mxCell><mxCell id="Ek9n73prsNn7vPPhgxyE-70" value="*" style="edgeLabel;html=1;align=center;verticalAlign=middle;resizable=0;points=[];fontSize=14;" parent="Ek9n73prsNn7vPPhgxyE-68" vertex="1" connectable="0"><mxGeometry x="0.7073" y="1" relative="1" as="geometry"><mxPoint as="offset"/></mxGeometry></mxCell><mxCell id="Ek9n73prsNn7vPPhgxyE-35" value="Order" style="swimlane;fontStyle=0;childLayout=stackLayout;horizontal=1;startSize=26;fillColor=none;horizontalStack=0;resizeParent=1;resizeParentMax=0;resizeLast=0;collapsible=1;marginBottom=0;" parent="1" vertex="1"><mxGeometry x="330" y="240" width="140" height="156" as="geometry"/></mxCell><mxCell id="Ek9n73prsNn7vPPhgxyE-45" value="- commandId: string" style="text;strokeColor=none;fillColor=none;align=left;verticalAlign=top;spacingLeft=4;spacingRight=4;overflow=hidden;rotatable=0;points=[[0,0.5],[1,0.5]];portConstraint=eastwest;" parent="Ek9n73prsNn7vPPhgxyE-35" vertex="1"><mxGeometry y="26" width="140" height="26" as="geometry"/></mxCell><mxCell id="Ek9n73prsNn7vPPhgxyE-37" value="- price: double" style="text;strokeColor=none;fillColor=none;align=left;verticalAlign=top;spacingLeft=4;spacingRight=4;overflow=hidden;rotatable=0;points=[[0,0.5],[1,0.5]];portConstraint=eastwest;" parent="Ek9n73prsNn7vPPhgxyE-35" vertex="1"><mxGeometry y="52" width="140" height="26" as="geometry"/></mxCell><mxCell id="23" value="- dueDate: date" style="text;strokeColor=none;fillColor=none;align=left;verticalAlign=top;spacingLeft=4;spacingRight=4;overflow=hidden;rotatable=0;points=[[0,0.5],[1,0.5]];portConstraint=eastwest;" vertex="1" parent="Ek9n73prsNn7vPPhgxyE-35"><mxGeometry y="78" width="140" height="26" as="geometry"/></mxCell><mxCell id="24" value="- deliveryDate: date" style="text;strokeColor=none;fillColor=none;align=left;verticalAlign=top;spacingLeft=4;spacingRight=4;overflow=hidden;rotatable=0;points=[[0,0.5],[1,0.5]];portConstraint=eastwest;" vertex="1" parent="Ek9n73prsNn7vPPhgxyE-35"><mxGeometry y="104" width="140" height="26" as="geometry"/></mxCell><mxCell id="25" value="- isDelivery: boolean" style="text;strokeColor=none;fillColor=none;align=left;verticalAlign=top;spacingLeft=4;spacingRight=4;overflow=hidden;rotatable=0;points=[[0,0.5],[1,0.5]];portConstraint=eastwest;" vertex="1" parent="Ek9n73prsNn7vPPhgxyE-35"><mxGeometry y="130" width="140" height="26" as="geometry"/></mxCell><mxCell id="Ek9n73prsNn7vPPhgxyE-38" value="Payment" style="swimlane;fontStyle=0;childLayout=stackLayout;horizontal=1;startSize=26;fillColor=none;horizontalStack=0;resizeParent=1;resizeParentMax=0;resizeLast=0;collapsible=1;marginBottom=0;" parent="1" vertex="1"><mxGeometry x="290" y="460" width="200" height="78" as="geometry"/></mxCell><mxCell id="Ek9n73prsNn7vPPhgxyE-39" value="- price: double" style="text;strokeColor=none;fillColor=none;align=left;verticalAlign=top;spacingLeft=4;spacingRight=4;overflow=hidden;rotatable=0;points=[[0,0.5],[1,0.5]];portConstraint=eastwest;" parent="Ek9n73prsNn7vPPhgxyE-38" vertex="1"><mxGeometry y="26" width="200" height="26" as="geometry"/></mxCell><mxCell id="Ek9n73prsNn7vPPhgxyE-40" value="- paymentType: PaymentTypeEnum" style="text;strokeColor=none;fillColor=none;align=left;verticalAlign=top;spacingLeft=4;spacingRight=4;overflow=hidden;rotatable=0;points=[[0,0.5],[1,0.5]];portConstraint=eastwest;" parent="Ek9n73prsNn7vPPhgxyE-38" vertex="1"><mxGeometry y="52" width="200" height="26" as="geometry"/></mxCell><mxCell id="Ek9n73prsNn7vPPhgxyE-41" value="&lt;p style=&quot;margin: 0px ; margin-top: 4px ; text-align: center&quot;&gt;&lt;i&gt;&amp;lt;&amp;lt;Enum&amp;gt;&amp;gt;&lt;/i&gt;&lt;br&gt;&lt;b&gt;MesureEnum&lt;/b&gt;&lt;/p&gt;&lt;hr size=&quot;1&quot;&gt;&lt;p style=&quot;margin: 0px ; margin-left: 4px&quot;&gt;+ L&lt;br&gt;+ CL&lt;/p&gt;&lt;p style=&quot;margin: 0px ; margin-left: 4px&quot;&gt;+ ML&lt;/p&gt;&lt;hr size=&quot;1&quot;&gt;&lt;p style=&quot;margin: 0px ; margin-left: 4px&quot;&gt;&lt;br&gt;&lt;/p&gt;" style="verticalAlign=top;align=left;overflow=fill;fontSize=12;fontFamily=Helvetica;html=1;" parent="1" vertex="1"><mxGeometry x="270" y="750" width="200" height="90" as="geometry"/></mxCell><mxCell id="Ek9n73prsNn7vPPhgxyE-42" value="Customer" style="swimlane;fontStyle=0;childLayout=stackLayout;horizontal=1;startSize=26;fillColor=none;horizontalStack=0;resizeParent=1;resizeParentMax=0;resizeLast=0;collapsible=1;marginBottom=0;" parent="1" vertex="1"><mxGeometry x="60" y="250" width="140" height="182" as="geometry"/></mxCell><mxCell id="Ek9n73prsNn7vPPhgxyE-43" value="- name: string" style="text;strokeColor=none;fillColor=none;align=left;verticalAlign=top;spacingLeft=4;spacingRight=4;overflow=hidden;rotatable=0;points=[[0,0.5],[1,0.5]];portConstraint=eastwest;" parent="Ek9n73prsNn7vPPhgxyE-42" vertex="1"><mxGeometry y="26" width="140" height="26" as="geometry"/></mxCell><mxCell id="Ek9n73prsNn7vPPhgxyE-46" value="- fixe: string" style="text;strokeColor=none;fillColor=none;align=left;verticalAlign=top;spacingLeft=4;spacingRight=4;overflow=hidden;rotatable=0;points=[[0,0.5],[1,0.5]];portConstraint=eastwest;" parent="Ek9n73prsNn7vPPhgxyE-42" vertex="1"><mxGeometry y="52" width="140" height="26" as="geometry"/></mxCell><mxCell id="Ek9n73prsNn7vPPhgxyE-47" value="- mobile: string" style="text;strokeColor=none;fillColor=none;align=left;verticalAlign=top;spacingLeft=4;spacingRight=4;overflow=hidden;rotatable=0;points=[[0,0.5],[1,0.5]];portConstraint=eastwest;" parent="Ek9n73prsNn7vPPhgxyE-42" vertex="1"><mxGeometry y="78" width="140" height="26" as="geometry"/></mxCell><mxCell id="Ek9n73prsNn7vPPhgxyE-48" value="- email: string" style="text;strokeColor=none;fillColor=none;align=left;verticalAlign=top;spacingLeft=4;spacingRight=4;overflow=hidden;rotatable=0;points=[[0,0.5],[1,0.5]];portConstraint=eastwest;" parent="Ek9n73prsNn7vPPhgxyE-42" vertex="1"><mxGeometry y="104" width="140" height="26" as="geometry"/></mxCell><mxCell id="3" value="- address: string" style="text;strokeColor=none;fillColor=none;align=left;verticalAlign=top;spacingLeft=4;spacingRight=4;overflow=hidden;rotatable=0;points=[[0,0.5],[1,0.5]];portConstraint=eastwest;" parent="Ek9n73prsNn7vPPhgxyE-42" vertex="1"><mxGeometry y="130" width="140" height="26" as="geometry"/></mxCell><mxCell id="Ek9n73prsNn7vPPhgxyE-44" value="- description: string" style="text;strokeColor=none;fillColor=none;align=left;verticalAlign=top;spacingLeft=4;spacingRight=4;overflow=hidden;rotatable=0;points=[[0,0.5],[1,0.5]];portConstraint=eastwest;" parent="Ek9n73prsNn7vPPhgxyE-42" vertex="1"><mxGeometry y="156" width="140" height="26" as="geometry"/></mxCell><mxCell id="Ek9n73prsNn7vPPhgxyE-49" style="edgeStyle=orthogonalEdgeStyle;rounded=0;orthogonalLoop=1;jettySize=auto;html=1;endArrow=none;endFill=0;" parent="1" source="Ek9n73prsNn7vPPhgxyE-6" target="Ek9n73prsNn7vPPhgxyE-13" edge="1"><mxGeometry relative="1" as="geometry"/></mxCell><mxCell id="Ek9n73prsNn7vPPhgxyE-50" value="&lt;font style=&quot;font-size: 14px&quot;&gt;*&lt;/font&gt;" style="edgeLabel;html=1;align=center;verticalAlign=middle;resizable=0;points=[];" parent="Ek9n73prsNn7vPPhgxyE-49" vertex="1" connectable="0"><mxGeometry x="0.859" y="-1" relative="1" as="geometry"><mxPoint as="offset"/></mxGeometry></mxCell><mxCell id="Ek9n73prsNn7vPPhgxyE-55" value="*" style="edgeLabel;html=1;align=center;verticalAlign=middle;resizable=0;points=[];fontSize=14;" parent="Ek9n73prsNn7vPPhgxyE-49" vertex="1" connectable="0"><mxGeometry x="-0.859" relative="1" as="geometry"><mxPoint as="offset"/></mxGeometry></mxCell><mxCell id="Ek9n73prsNn7vPPhgxyE-52" style="edgeStyle=orthogonalEdgeStyle;rounded=0;orthogonalLoop=1;jettySize=auto;html=1;entryX=0.993;entryY=0.846;entryDx=0;entryDy=0;entryPerimeter=0;endArrow=none;endFill=0;" parent="1" source="Ek9n73prsNn7vPPhgxyE-7" target="Ek9n73prsNn7vPPhgxyE-18" edge="1"><mxGeometry relative="1" as="geometry"/></mxCell><mxCell id="Ek9n73prsNn7vPPhgxyE-53" value="&lt;font style=&quot;font-size: 14px;&quot;&gt;*&lt;/font&gt;" style="edgeLabel;html=1;align=center;verticalAlign=middle;resizable=0;points=[];" parent="Ek9n73prsNn7vPPhgxyE-52" vertex="1" connectable="0"><mxGeometry x="0.8285" y="1" relative="1" as="geometry"><mxPoint as="offset"/></mxGeometry></mxCell><mxCell id="Ek9n73prsNn7vPPhgxyE-54" value="*" style="edgeLabel;html=1;align=center;verticalAlign=middle;resizable=0;points=[];fontSize=14;" parent="Ek9n73prsNn7vPPhgxyE-52" vertex="1" connectable="0"><mxGeometry x="-0.8687" y="-3" relative="1" as="geometry"><mxPoint as="offset"/></mxGeometry></mxCell><mxCell id="Ek9n73prsNn7vPPhgxyE-59" style="edgeStyle=orthogonalEdgeStyle;rounded=0;orthogonalLoop=1;jettySize=auto;html=1;fontSize=14;endArrow=none;endFill=0;" parent="1" source="Ek9n73prsNn7vPPhgxyE-46" target="Ek9n73prsNn7vPPhgxyE-45" edge="1"><mxGeometry relative="1" as="geometry"/></mxCell><mxCell id="Ek9n73prsNn7vPPhgxyE-60" value="1" style="edgeLabel;html=1;align=center;verticalAlign=middle;resizable=0;points=[];fontSize=14;" parent="Ek9n73prsNn7vPPhgxyE-59" vertex="1" connectable="0"><mxGeometry x="-0.8434" y="-1" relative="1" as="geometry"><mxPoint as="offset"/></mxGeometry></mxCell><mxCell id="Ek9n73prsNn7vPPhgxyE-61" value="*" style="edgeLabel;html=1;align=center;verticalAlign=middle;resizable=0;points=[];fontSize=14;" parent="Ek9n73prsNn7vPPhgxyE-59" vertex="1" connectable="0"><mxGeometry x="0.8795" y="-1" relative="1" as="geometry"><mxPoint as="offset"/></mxGeometry></mxCell><mxCell id="Ek9n73prsNn7vPPhgxyE-62" style="edgeStyle=orthogonalEdgeStyle;rounded=0;orthogonalLoop=1;jettySize=auto;html=1;entryX=0;entryY=0.5;entryDx=0;entryDy=0;fontSize=14;endArrow=none;endFill=0;" parent="1" source="Ek9n73prsNn7vPPhgxyE-37" target="Ek9n73prsNn7vPPhgxyE-31" edge="1"><mxGeometry relative="1" as="geometry"/></mxCell><mxCell id="Ek9n73prsNn7vPPhgxyE-63" value="1" style="edgeLabel;html=1;align=center;verticalAlign=middle;resizable=0;points=[];fontSize=14;" parent="Ek9n73prsNn7vPPhgxyE-62" vertex="1" connectable="0"><mxGeometry x="-0.8976" relative="1" as="geometry"><mxPoint as="offset"/></mxGeometry></mxCell><mxCell id="Ek9n73prsNn7vPPhgxyE-64" value="*" style="edgeLabel;html=1;align=center;verticalAlign=middle;resizable=0;points=[];fontSize=14;" parent="Ek9n73prsNn7vPPhgxyE-62" vertex="1" connectable="0"><mxGeometry x="0.8976" y="-2" relative="1" as="geometry"><mxPoint as="offset"/></mxGeometry></mxCell><mxCell id="7" value="read&lt;br&gt;create&lt;br&gt;update&lt;br&gt;delete" style="rounded=0;whiteSpace=wrap;html=1;" parent="1" vertex="1"><mxGeometry x="30" y="610" width="120" height="80" as="geometry"/></mxCell><mxCell id="8" value="read_&lt;br&gt;create_&lt;br&gt;update_&lt;br&gt;delete_" style="rounded=0;whiteSpace=wrap;html=1;" parent="1" vertex="1"><mxGeometry x="310" y="600" width="120" height="80" as="geometry"/></mxCell><mxCell id="12" style="edgeStyle=orthogonalEdgeStyle;rounded=0;orthogonalLoop=1;jettySize=auto;html=1;endArrow=none;endFill=0;" parent="1" source="9" edge="1"><mxGeometry relative="1" as="geometry"><mxPoint x="660" y="480" as="targetPoint"/></mxGeometry></mxCell><mxCell id="13" value="&lt;font style=&quot;font-size: 14px&quot;&gt;*&lt;/font&gt;" style="edgeLabel;html=1;align=center;verticalAlign=middle;resizable=0;points=[];" parent="12" vertex="1" connectable="0"><mxGeometry x="0.7524" y="-1" relative="1" as="geometry"><mxPoint as="offset"/></mxGeometry></mxCell><mxCell id="14" value="1" style="edgeLabel;html=1;align=center;verticalAlign=middle;resizable=0;points=[];fontSize=14;" parent="12" vertex="1" connectable="0"><mxGeometry x="-0.7333" y="-2" relative="1" as="geometry"><mxPoint as="offset"/></mxGeometry></mxCell><mxCell id="9" value="Volume" style="swimlane;fontStyle=0;childLayout=stackLayout;horizontal=1;startSize=26;fillColor=none;horizontalStack=0;resizeParent=1;resizeParentMax=0;resizeLast=0;collapsible=1;marginBottom=0;" parent="1" vertex="1"><mxGeometry x="590" y="585" width="140" height="78" as="geometry"/></mxCell><mxCell id="10" value="- quantity: int" style="text;strokeColor=none;fillColor=none;align=left;verticalAlign=top;spacingLeft=4;spacingRight=4;overflow=hidden;rotatable=0;points=[[0,0.5],[1,0.5]];portConstraint=eastwest;" parent="9" vertex="1"><mxGeometry y="26" width="140" height="26" as="geometry"/></mxCell><mxCell id="11" value="- mesure: MesureEnum" style="text;strokeColor=none;fillColor=none;align=left;verticalAlign=top;spacingLeft=4;spacingRight=4;overflow=hidden;rotatable=0;points=[[0,0.5],[1,0.5]];portConstraint=eastwest;" parent="9" vertex="1"><mxGeometry y="52" width="140" height="26" as="geometry"/></mxCell><mxCell id="15" value="&lt;p style=&quot;margin: 0px ; margin-top: 4px ; text-align: center&quot;&gt;&lt;i&gt;&amp;lt;&amp;lt;Enum&amp;gt;&amp;gt;&lt;/i&gt;&lt;br&gt;&lt;b&gt;PaymentTypeEnum&lt;/b&gt;&lt;/p&gt;&lt;hr size=&quot;1&quot;&gt;&lt;p style=&quot;margin: 0px ; margin-left: 4px&quot;&gt;+ CASH&lt;br&gt;+ VIREMENT&lt;/p&gt;&lt;p style=&quot;margin: 0px ; margin-left: 4px&quot;&gt;+ CB&lt;/p&gt;&lt;hr size=&quot;1&quot;&gt;&lt;p style=&quot;margin: 0px ; margin-left: 4px&quot;&gt;&lt;br&gt;&lt;/p&gt;" style="verticalAlign=top;align=left;overflow=fill;fontSize=12;fontFamily=Helvetica;html=1;" parent="1" vertex="1"><mxGeometry x="40" y="750" width="200" height="90" as="geometry"/></mxCell><mxCell id="16" value="Document" style="swimlane;fontStyle=0;childLayout=stackLayout;horizontal=1;startSize=26;fillColor=none;horizontalStack=0;resizeParent=1;resizeParentMax=0;resizeLast=0;collapsible=1;marginBottom=0;" vertex="1" parent="1"><mxGeometry x="827" y="292" width="140" height="52" as="geometry"/></mxCell><mxCell id="17" value="- content: string" style="text;strokeColor=none;fillColor=none;align=left;verticalAlign=top;spacingLeft=4;spacingRight=4;overflow=hidden;rotatable=0;points=[[0,0.5],[1,0.5]];portConstraint=eastwest;" vertex="1" parent="16"><mxGeometry y="26" width="140" height="26" as="geometry"/></mxCell><mxCell id="19" style="edgeStyle=orthogonalEdgeStyle;rounded=0;orthogonalLoop=1;jettySize=auto;html=1;entryX=0.5;entryY=0;entryDx=0;entryDy=0;endArrow=none;endFill=0;" edge="1" parent="1" source="Ek9n73prsNn7vPPhgxyE-21" target="16"><mxGeometry relative="1" as="geometry"/></mxCell><mxCell id="20" value="&lt;font style=&quot;font-size: 13px&quot;&gt;1&lt;/font&gt;" style="edgeLabel;html=1;align=center;verticalAlign=middle;resizable=0;points=[];" vertex="1" connectable="0" parent="19"><mxGeometry x="-0.8979" y="2" relative="1" as="geometry"><mxPoint as="offset"/></mxGeometry></mxCell><mxCell id="21" value="&lt;font style=&quot;font-size: 13px&quot;&gt;*&lt;/font&gt;" style="edgeLabel;html=1;align=center;verticalAlign=middle;resizable=0;points=[];" vertex="1" connectable="0" parent="19"><mxGeometry x="0.8979" y="-1" relative="1" as="geometry"><mxPoint as="offset"/></mxGeometry></mxCell><mxCell id="33" style="edgeStyle=orthogonalEdgeStyle;rounded=0;orthogonalLoop=1;jettySize=auto;html=1;entryX=1;entryY=0.5;entryDx=0;entryDy=0;fontSize=13;endArrow=none;endFill=0;" edge="1" parent="1" source="27" target="25"><mxGeometry relative="1" as="geometry"/></mxCell><mxCell id="46" value="1" style="edgeLabel;html=1;align=center;verticalAlign=middle;resizable=0;points=[];fontSize=13;" vertex="1" connectable="0" parent="33"><mxGeometry x="0.9593" y="-1" relative="1" as="geometry"><mxPoint as="offset"/></mxGeometry></mxCell><mxCell id="47" value="0..1" style="edgeLabel;html=1;align=center;verticalAlign=middle;resizable=0;points=[];fontSize=13;" vertex="1" connectable="0" parent="33"><mxGeometry x="-0.947" y="-1" relative="1" as="geometry"><mxPoint as="offset"/></mxGeometry></mxCell><mxCell id="43" style="edgeStyle=orthogonalEdgeStyle;rounded=0;orthogonalLoop=1;jettySize=auto;html=1;entryX=0.5;entryY=0;entryDx=0;entryDy=0;fontSize=13;endArrow=none;endFill=0;" edge="1" parent="1" source="27" target="40"><mxGeometry relative="1" as="geometry"/></mxCell><mxCell id="48" value="1" style="edgeLabel;html=1;align=center;verticalAlign=middle;resizable=0;points=[];fontSize=13;" vertex="1" connectable="0" parent="43"><mxGeometry x="-0.6338" y="1" relative="1" as="geometry"><mxPoint as="offset"/></mxGeometry></mxCell><mxCell id="49" value="*" style="edgeLabel;html=1;align=center;verticalAlign=middle;resizable=0;points=[];fontSize=13;" vertex="1" connectable="0" parent="43"><mxGeometry x="0.7183" relative="1" as="geometry"><mxPoint as="offset"/></mxGeometry></mxCell><mxCell id="27" value="OrderReturn" style="swimlane;fontStyle=0;childLayout=stackLayout;horizontal=1;startSize=26;fillColor=none;horizontalStack=0;resizeParent=1;resizeParentMax=0;resizeLast=0;collapsible=1;marginBottom=0;" vertex="1" parent="1"><mxGeometry x="827" y="447" width="140" height="52" as="geometry"/></mxCell><mxCell id="29" value="- returnDate: date" style="text;strokeColor=none;fillColor=none;align=left;verticalAlign=top;spacingLeft=4;spacingRight=4;overflow=hidden;rotatable=0;points=[[0,0.5],[1,0.5]];portConstraint=eastwest;" vertex="1" parent="27"><mxGeometry y="26" width="140" height="26" as="geometry"/></mxCell><mxCell id="40" value="OrderReturnItem" style="swimlane;fontStyle=0;childLayout=stackLayout;horizontal=1;startSize=26;fillColor=none;horizontalStack=0;resizeParent=1;resizeParentMax=0;resizeLast=0;collapsible=1;marginBottom=0;" vertex="1" parent="1"><mxGeometry x="827" y="570" width="140" height="52" as="geometry"/></mxCell><mxCell id="45" style="edgeStyle=orthogonalEdgeStyle;rounded=0;orthogonalLoop=1;jettySize=auto;html=1;entryX=1;entryY=0.5;entryDx=0;entryDy=0;fontSize=13;endArrow=none;endFill=0;exitX=0;exitY=0.75;exitDx=0;exitDy=0;" edge="1" parent="1" source="40" target="Ek9n73prsNn7vPPhgxyE-33"><mxGeometry relative="1" as="geometry"><mxPoint x="820" y="609" as="sourcePoint"/></mxGeometry></mxCell><mxCell id="50" value="1" style="edgeLabel;html=1;align=center;verticalAlign=middle;resizable=0;points=[];fontSize=13;" vertex="1" connectable="0" parent="45"><mxGeometry x="0.9276" y="-1" relative="1" as="geometry"><mxPoint as="offset"/></mxGeometry></mxCell><mxCell id="51" value="0..1" style="edgeLabel;html=1;align=center;verticalAlign=middle;resizable=0;points=[];fontSize=13;" vertex="1" connectable="0" parent="45"><mxGeometry x="-0.9548" y="-2" relative="1" as="geometry"><mxPoint x="-12" as="offset"/></mxGeometry></mxCell><mxCell id="52" style="edgeStyle=orthogonalEdgeStyle;rounded=0;orthogonalLoop=1;jettySize=auto;html=1;fontSize=13;endArrow=none;endFill=0;" edge="1" parent="1"><mxGeometry relative="1" as="geometry"><mxPoint x="820" y="609" as="targetPoint"/><mxPoint x="820" y="609" as="sourcePoint"/></mxGeometry></mxCell><mxCell id="41" value="- quantity: int" style="text;strokeColor=none;fillColor=none;align=left;verticalAlign=top;spacingLeft=4;spacingRight=4;overflow=hidden;rotatable=0;points=[[0,0.5],[1,0.5]];portConstraint=eastwest;" vertex="1" parent="1"><mxGeometry x="840" y="596" width="140" height="26" as="geometry"/></mxCell></root></mxGraphModel></diagram></mxfile>